<svg version="1" xmlns="http://www.w3.org/2000/svg" width="1134.667" height="1134.667" viewBox="0 0 851.000000 851.000000"><path d="M587.9 35.6c-6 1.5-13.4 5.6-17 9.4-1.7 1.7-4.4 5.9-6 9.3-2.5 5.3-2.9 7.4-2.9 14.4 0 11.4 2.1 17 9.2 24.1 3.7 3.8 4.9 4.7 9.9 7.3 3.8 2 5.9 2.4 14.4 2.4 8.7 0 10.7-.3 15-2.5 6.5-3.2 14.1-10.8 16.8-16.8 3.1-6.7 3.1-21.6 0-28.4-5.1-11-15.6-18.5-27.7-19.7-4.5-.4-9-.2-11.7.5zM481.5 36.7c-1.6.8-4.1 2.5-5.4 3.7-6.2 5.6-8.5 20-4.2 26.9 8.2 13.4 24.2 15.6 35.3 4.9 10.6-10.2 7.8-28.5-5.4-35.3-4.7-2.4-15.9-2.5-20.3-.2zM697.5 63.6c-18.2 3.8-28.9 13-34.5 29.7-2 5.8-2.2 8.1-1.7 16.6.3 5.4 1 10.7 1.5 11.7.6 1 1.9 3.6 2.8 5.8 3 6.6 11.5 14.9 19.6 18.9 17.4 8.8 40.1 4.5 52.7-9.9 15.2-17.2 14.4-44.3-1.7-60.3-6.4-6.4-14-10.6-22.1-12.1-5.3-1-12.7-1.2-16.6-.4zM453.5 132.7c.3 4.9 1 14.6 1.5 21.8.5 7.1 1.2 19 1.6 26.3l.5 13.3-3.9 6.2c-10.5 16.6-15.3 31.3-16 49.3-.5 12.6.8 19.9 5.9 34.3 1 3 1.9 7 1.9 8.7 0 3.7-1.2 4.4-15.3 8.9-12 3.9-14.4 7.4-12.2 17.4.6 2.7.3 2.9-5.2 4.7-6.2 2-6 1.7-4.7 9.4.5 3.3.2 3.9-5.1 8.9S392 355.1 392 358.4c0 2.1 54.1 1.5 78-.9 21.2-2.1 52.5-1.6 63.2.9 8.7 2.1 17.7 6.8 23.5 12.2 2.5 2.4 4.8 4.4 5 4.4.4 0 7.8-15.2 10.5-21.5 2.7-6.5 4.7-12.4 7.4-22 3.5-12.6 4.4-34.4 2-46.5-4-19.7-11.5-31.5-36.1-56.4-14.1-14.4-19.1-20-26.1-29.1-6.3-8.4-14.1-19.5-16-23.1-.6-1.1-2.7-5-4.6-8.5-4.5-8.2-9.2-18.8-13.9-31.4-4.3-11.6-3.2-10.9-20.2-11.8L453 124l.5 8.7z"/><path d="M411 126.6c-38.3 5-60.8 11.5-91.5 26.5-13.9 6.8-17.8 9-29.2 16.7-4.6 3.2-9.2 6.2-10.3 6.8-1 .6-3.6 2.5-5.7 4.2-2.1 1.7-8.1 6.6-13.3 10.8-15.5 12.6-41.4 39.5-53.8 55.9-3.7 4.9-7.8 10.1-8.3 10.5-.3.3-1.3 1.9-2.3 3.6l-1.8 3 6.5 10.1c3.6 5.5 8.7 14 11.3 18.9 2.5 4.9 5 9.3 5.3 9.9 1.2 1.8 5.9 13.7 9.6 24.3 3.9 11.1 7.5 31.6 7.5 42.3 0 7.8-2.6 27.2-4.2 31.4-3.7 9.9-7.4 17.3-11.4 22.8-12.7 17.7-15.9 23.7-19 35.7-3.3 12.9-4.2 26.1-2.8 40.5.7 6.7 5.8 28.5 7.4 31.2.5 1 2.3 5.2 3.9 9.3 1.6 4.1 6.5 14.9 10.8 24 12.6 26 16.3 33.8 16.3 34.5 0 .3.9 2.4 2 4.8 2.4 5.1 9.8 25.9 11 30.7 7.3 29.6 9.7 50.4 8.5 73-.5 8-.9 17-.9 20l-.1 5.5 8 2.7c4.4 1.5 12.3 3.6 17.5 4.8 5.2 1.2 13.3 3.2 18 4.5 11.5 3.2 57 11.9 68 13.1 3 .3 13.2 1.4 22.5 2.5 19.4 2.4 78.5 4 78.5 2.2 0-.6-4.4-1.6-9.7-2.3-5.4-.6-12.3-1.8-15.3-2.6s-11.1-2.7-18-4.3c-6.9-1.6-16.3-4.1-21-5.6-4.7-1.5-10.2-3.1-12.2-3.6s-5.2-1.5-7-2.3c-1.8-.8-8.2-3.4-14.3-5.7-10.6-4.1-31.4-13.4-36.5-16.4-1.4-.8-5.8-3.1-9.8-5.2l-7.3-3.8 4.8-.8c6.6-1 22.3-4.7 24.2-5.7.9-.5 3.9-1.6 6.6-2.6 17.6-6.2 35.6-17.9 48.3-31.6 4.8-5.1 14.2-19.4 14.2-21.5 0-.7.4-1.3.9-1.3 1.4 0 4.9-12.2 7.2-24.7 4.8-26.8-.2-49.4-13.9-62.9-13.1-13.1-26.6-18.3-43.8-17.1-9.1.7-16.6 3.3-21.6 7.8-1.5 1.3-5 4.1-7.8 6.2-7 5.4-6.9 8.8.3 4.8 5.3-3 12.6-4.2 17.7-2.9 2.5.6 4.7 1.4 5 1.7.3.4 2.2 1.7 4.2 3.1 2 1.3 5.1 4.9 7 7.9 2.9 4.9 3.3 6.3 3.3 12.6 0 11.9-6.9 23.9-18 31-7.8 5-20.7 8.8-27.7 8.1-19.9-2-43.4-17.7-53.2-35.6-1.1-1.9-2.2-3.7-2.6-4-.6-.5-5.5-13.5-8.4-22.3-2.5-7.6-4.6-22.4-4.6-32.8 0-12.8 2.4-25.8 11.9-63.9 1.2-4.7 3.1-12.3 4.2-17 1.2-4.7 3.4-13.2 5-19 1.5-5.8 3.9-15.1 5.3-20.7 1.5-5.6 3.1-11.4 3.7-13 .6-1.5 1.1-7.4 1-13.1-.1-11.6-3.4-26.6-9.6-43.7-9.7-26.7-11.3-32.3-12.5-43.3-.7-6.1-.5-10.6.5-17 1.6-9.7 2.2-8.2-5-13.5-1.8-1.4-2-2.9-2.2-16.2-.2-8.1-.7-16.4-1.3-18.6-1.3-4.6-.5-11.7 2-17.4 2.2-5 8.3-12.4 11.8-14.3 1.5-.7 3.4-2 4.3-2.8.8-.8 2.3-1.4 3.2-1.4.9 0 1.9-.5 2.2-1 1.1-1.8 7.6-1.1 11.3 1.2 2.3 1.4 4.2 3.8 5.8 7.5 1.3 2.9 2.9 5.3 3.6 5.3.7 0 2.7-.9 4.4-1.9 1.7-1 4.6-2.2 6.5-2.6 1.9-.4 3.9-1.1 4.4-1.6.6-.4 5.3-1.3 10.5-1.9 22.3-2.5 25.6-3.2 33.9-6.8 15.1-6.5 30.1-18.9 42.3-35.2 10.7-14.2 18.7-30.7 15.3-31.5-.5-.2-5.7.3-11.5 1.1zM484.5 128.2c8 25.4 22.5 52.8 37.8 71.8 8.1 9.9 11.8 14.1 26.9 29.5 15.3 15.6 23.7 26.3 28.3 36.1 1.9 4.1 3.5 7.7 3.5 8.2 0 .5 1 3.8 2.2 7.3 2.9 8.7 3.1 30 .4 44.4-1 5.5-2.2 10.4-2.6 11-.4.5-1.5 3.5-2.4 6.5-1 3-2.9 8-4.3 11s-3.3 7.6-4.3 10.1c-1 2.6-2.8 6.2-3.9 8-1.2 1.9-2.1 4.1-2.1 5 0 2.7 12.9 18 32 38.2 4.7 5 9.2 9.7 10 10.6.8.9 6.6 7.7 12.9 15.1 6.3 7.4 13.5 16 16.2 19 2.6 3 6.9 8 9.5 11 2.6 3 7.3 8.4 10.5 12 3.1 3.6 6.6 7.6 7.7 9 2.3 2.8 4.3 2 2.4-1-2.3-3.7-8.1-20.5-10-29-3.5-15.1-4.5-24.8-3.9-35.4 1.3-23.1 7-39 24.4-67.5 6.2-10.3 13.4-26.1 15.9-35 4-14.3 4.5-18.3 5.1-36.6.6-21.2-.8-34.2-5.3-50.8-1.4-5.1-3-11.1-3.6-13.4-.6-2.3-2.3-5.4-3.7-7-4.2-4.7-17.7-16.3-19-16.3-.6 0-1.1-.4-1.1-.8 0-.5-1.8-2.1-4-3.8-2.3-1.6-5.5-4.1-7.3-5.6-1.8-1.5-4.7-3.5-6.4-4.5-1.8-1-3.3-2.1-3.3-2.5 0-.5-.5-.8-1.2-.8-.6 0-1.9-.6-2.7-1.4-.9-.8-3.2-2.3-5.1-3.4-1.9-1-6.3-3.6-9.7-5.6-3.4-2-6.6-3.6-7.1-3.6-.6 0-1.2-.4-1.4-.9-.4-1.1-12.3-7.1-14.2-7.1-.8 0-1.6-.4-1.8-.8-.1-.4-2.8-1.8-5.8-3.1-17.6-7.5-25-10.4-29.5-11.6-2.7-.8-7-2.1-9.4-3-12.4-4.5-39.8-10.9-56.1-13.1-13.1-1.7-15-1.7-14.5-.2zM787.5 165.7c-1.1.3-2.4.9-3 1.3-.5.4-2.2 1-3.6 1.3-6.4 1.6-14.5 11.8-16.8 21.1-1.2 4.7-.6 18.6.8 18.6.3 0 1.4 1.8 2.5 3.9 4.2 8.9 13.5 15 24.1 15.9 6.4.5 16.5-1.3 16.5-2.9 0-.5.7-.9 1.6-.9 1.9 0 8-5.1 11.1-9.3 7.7-10.3 6.6-28.7-2.2-38.5-6.3-7-12.9-10.3-21.8-10.7-4-.2-8.1-.1-9.2.2z"/><path d="M691 225.3c0 .8 1.1 5 2.4 9.4 1.3 4.4 3.4 14.5 4.6 22.4 1.9 12 2.1 17 1.7 29.9-.9 27.6-6.4 46.5-20.5 70.3-2.9 4.8-5.2 9-5.2 9.3 0 .3-.9 1.8-1.9 3.3-1.1 1.5-4.2 7.3-7 12.9-11.8 23.6-14.1 52.5-6.6 81.5 4.9 18.7 14.1 38.7 21.9 47.6 13.4 15.2 17.4 20.2 27.9 34.9 5.1 7.2 11.2 18.9 15.4 29.7 3.5 9.1 9.3 31.4 9.3 35.8 0 1.4.6 3 1.4 3.6 1.1 1 2.6-1.3 8.2-12.6 3.8-7.6 7.9-16.1 9.1-18.8 4.7-11 8.3-20.7 8.3-22.5 0-1 .4-2 .8-2.2 2.4-1 12.5-41.1 15.8-62.8 3.2-21.4 4.3-55.6 2.5-78.7-1.6-20.1-7.3-52.5-10.1-58.3-.5-.8-1.3-4-2-7-2-8.5-8.6-27.1-13.6-38.1-5.7-12.3-15.5-31.2-19.1-36.7-2-3.1-5.7-8.9-8.2-12.7-2.5-3.9-4.8-7.2-5.1-7.5-.3-.3-1.8-2.4-3.4-4.8-1.6-2.4-3.5-4.6-4.1-5-.6-.4-1.6-1.5-2.1-2.4-.5-1-4.3-5.4-8.4-9.9-4.1-4.5-8.1-9.1-8.8-10.1-1.5-2.1-3.2-2.4-3.2-.5zM191.8 268.7c-2.6 3.1-15.8 24.9-15.8 26.1 0 .7-.4 1.2-.9 1.2-1.4 0-19.7 38-24.9 52-7.6 20.2-10.6 30.3-15.5 51.5-3.9 17.3-5.1 29.3-5.1 51.5.1 29 2.7 41.6 14.2 69.5 5.4 13 12.1 33.7 14.6 45.2 4.9 22.3 6.1 54.4 2.7 75.8-2.4 14.9-7.8 37.2-10.2 41.6-1 2-.8 2.5 1.7 4.3 7.4 5.4 51.3 27.2 62.8 31.2 2.3.8 5.5 2.1 7.1 2.8 2.6 1.2 23.7 8.8 28.7 10.3 2.6.8 3.3-6.3 3.3-33.7 0-26.1-.8-33.2-6.2-55-5.3-21.8-11.6-37.9-28-72-17.4-35.9-22.6-50.2-25.4-68.9-1.7-12.2-.7-27.1 3-41.2 3.3-12.7 6.2-18.4 17.3-34.1 13.3-18.6 17.6-35.1 16.5-62.2-.4-10.2-1.3-17-3.2-24.6-2.5-10.2-9.2-30-10.5-31-.3-.3-1.2-2.1-2-4-3-7.6-21-38-22.5-38-.1 0-.9.8-1.7 1.7zM276.7 291.7c-.4.3-.7 4.8-.7 9.9 0 7.6.5 10.6 2.7 16.5 5.8 15.6 25 29.4 58.8 42.2 11.5 4.3 33.7 10.7 37.3 10.7.9 0-2.6-1.5-7.8-3.4-34-12.1-60.3-31.9-79-59.6-3.1-4.7-6.7-10.4-7.9-12.8-2.3-4.5-2.4-4.6-3.4-3.5zM76.4 324.4c-10.2 4.5-14.3 15.8-9.1 25.3 3.3 6.2 7 8.6 13.8 9.1 7.3.5 9.9-.1 13.9-3.4 7.9-6.7 8.1-20.4.4-27.6-5.2-4.8-12.6-6.1-19-3.4zM56.9 397.2c-6.2 1.3-13.7 7.2-17.6 13.8-2.9 4.8-3.3 6.2-3.3 12.8 0 12 5.1 20.4 15.5 25.7 4.9 2.4 6.3 2.7 13.2 2.3 9.8-.4 15.7-3.2 20.6-9.7 4.8-6.2 5.7-9.1 5.9-17.6.1-6-.3-8.2-2.5-12.7-4.8-9.8-10.6-13.4-24.7-15.3-1.4-.1-4.6.2-7.1.7zM529.6 485.7c1.1 13.7 8.2 32.6 16.4 43.9 4.5 6.1 14.1 16.1 19.8 20.5l3.3 2.5-3.2 4c-3.7 4.6-14.4 22.6-18 30.4-1.5 3-3.4 8.8-4.4 12.7-1.6 6.8-1.6 7.8-.1 14.5.9 4 2.5 8.8 3.6 10.6 2.2 3.6 2.2 3.6-1.7 2.1-6.6-2.6-32.9-.1-42.8 4.1-1.1.5-3.8 1.4-6 2.1-2.2.6-5.7 1.8-7.8 2.6-3.8 1.3-3.8 1.3-3.2-.9 1.4-5 8.5-9.4 22.9-14.3 4.4-1.4 8.5-3.4 9.2-4.3 2.2-2.9 1.7-8-1.1-10.8-2.3-2.3-3.2-2.5-9.2-2.2-5.4.2-6.8 0-7.7-1.4-1.3-2.1.3-6.9 5-14.7 2.7-4.4 3.4-6.7 3.4-10.8 0-7.5-.5-8.3-5.6-8.3-4.2 0-4.5-.2-6-4-1.6-3.9-1.7-4-6.6-4-4.2 0-5.4.5-7.9 3-2.2 2.2-3.1 2.6-3.5 1.5-.3-.7-1.8-1.8-3.2-2.3-5.5-1.9-9.8 1.9-11.2 9.9-1.3 7.1-2.8 12.8-2.9 11-.1-.8-1.2-2.9-2.7-4.8-2.1-2.7-3.2-3.3-6.4-3.3-2.2 0-4.5.7-5.4 1.6-2.2 2.1-2.1 12.8 0 18.5 1 2.6 1.7 7.5 1.7 11.9.1 8.3-.8 10.3-10.4 24.7-6.7 9.9-8 14.1-8 24.7 0 5 .5 10.4 1.2 12.1 1.2 2.9 1.3 2.6 2.5-5.9 2.1-15.1 7.1-26.5 13.7-31.4 2.8-2.1 6.5-10.4 7.7-17.3 1-5.6.9-7.3-1-13.9-3.3-11.8-4.3-16.8-3.7-18.5 1.1-2.8 3.6-1.6 5.8 2.7 2.7 5.5 4.8 7.8 6.9 7.8 2.1 0 4-4 4-8.4 0-5.2 1.9-13.9 3.3-15.4.8-.7 2.1-1 3.1-.6 1.3.5 1.7 1.7 1.5 4.8-.4 7.8.1 15.6 1 15.6.5 0 1.1-1 1.4-2.3.7-2.9 3-9.1 3.8-9.7.3-.3 1.1-2.1 1.9-4 1.7-4.5 4.9-8 7.2-8 2.4 0 2.4 4-.2 11.5-2.3 6.6-2.7 14.9-.8 14.3.7-.3 2.5-3.6 4.2-7.5 2.9-7.2 5.9-10.2 9-9 2.4.9 1.9 4.2-1.1 9-6.4 10-8.9 17.5-7.8 22.7l.7 3.1 8.9-.3c7-.2 9.2.1 9.9 1.2 1.9 3 1 3.7-9.9 7.2-12.8 4-20.7 10.8-24.6 21.3-2.8 7.2-2.2 7.2 16.5 2.1 3-.8 12-2.7 20-4.2 19.3-3.5 29.6-3.1 42.8 1.5 5.2 1.8 9.6 3.1 9.8 2.9.2-.3-1.4-1.8-3.5-3.4-6.7-5-12.1-15.9-12.1-24.4 0-7.6 12.3-34.2 21.6-46.7 1.3-1.7 2.4-3.6 2.4-4.1 0-.6.3-1.2.8-1.4.4-.2 2.2-2.1 4.1-4.3 1.9-2.2 5.5-5.5 8-7.4 5.9-4.2 22.3-12 32.6-15.4 16.6-5.4 15.8-5.4 28.4-2.7 6.2 1.3 15.4 5.7 19.8 9.4 3.5 2.9 4.3 3.2 4.3 1.3-.1-1.4-10.7-9.5-15.9-12.2-14.4-7.3-37.5-8-52.6-1.5-8.4 3.6-16.4 7.7-20.2 10.2l-4.5 3.1-5.1-5.9c-8.3-9.5-18.2-19.5-25.1-25.4-3.6-3-6.5-5.8-6.5-6.2-.1-.4-1.9-3.1-4.1-6-2.2-2.9-5.2-8.1-6.7-11.6-1.5-3.4-3.1-6.2-3.5-6.2-.4 0-.5 3-.2 6.7zM56.4 487.9c-9.7 2.8-16.6 8.5-21 17.6-1.9 4.1-2.4 6.5-2.4 13.5 0 10.1 1.8 14.6 8.1 21.5 6.8 7.3 12.7 9.9 22.9 10 5.1 0 9.9-.6 12-1.4 6.6-2.7 12.8-8 16.2-13.9 2.9-5.1 3.3-6.7 3.6-15.2.3-7.8 0-10.3-1.6-14.1-4.2-9.6-12.5-16.1-23.5-18.5-7.4-1.6-6.7-1.6-14.3.5zM95.5 588c-5.3 2.6-11.2 8.5-13.1 12.8-.8 2-1.4 6.7-1.4 10.9 0 6.3.5 8.4 2.7 12.4 4.7 8.7 12.8 13.2 23.1 13 3.5-.1 8-.8 10-1.7 4.1-1.7 11.2-8.1 11.2-10.1 0-.7.4-1.3.8-1.3 2.8 0 4.2-14.1 2-21.2-1.5-5.1-7.7-12.1-13.1-14.7-5.9-2.8-16.6-2.9-22.2-.1zM477.3 689.1c-7.6 4.9-16.6 13.5-22.1 20.9-8 11-15.4 30.7-15.1 40.7v2.8l1.4-3c3.4-7.6 5.5-12.5 5.5-13 0-.9 11.1-19.9 12.6-21.6.8-.8 1.4-1.9 1.4-2.2 0-1.2 10.3-13.7 17.3-20.9 3.7-3.9 6.7-7.2 6.7-7.4 0-1-2.1 0-7.7 3.7zM431.5 784c-11.7.9-35.5 3.8-42.5 5.1-3 .6-8.6 1.7-12.5 2.5-10 1.9-16.5 3.7-16.5 4.6 0 .5-.6.8-1.4.8-2.4 0-10 3.8-12.8 6.5-4.4 4.1-3.7 7.6 2.2 11.5 1.2.8 2.8 2 3.4 2.5 1.5 1.4 16.8 6.2 25.6 8.1 11.1 2.3 32.5 5.3 46.6 6.5 15.4 1.4 80.1 1.4 92.9 0 14.1-1.5 36.1-4.8 46-6.9 9.1-2 23.2-6.7 25-8.3.5-.5 1.7-.9 2.7-.9 1 0 1.8-.5 1.8-1.1 0-.6.7-1.7 1.5-2.5.8-.9 1.5-2.7 1.5-4 0-7.3-15.6-14.1-43-18.8-16.1-2.7-23.1-3.5-48-5.5-13.8-1.1-58.3-1.2-72.5-.1z"/></svg>