<?xml version="1.0" standalone="no"?>
<!DOCTYPE svg PUBLIC "-//W3C//DTD SVG 20010904//EN"
        "http://www.w3.org/TR/2001/REC-SVG-20010904/DTD/svg10.dtd">
<svg version="1.0" xmlns="http://www.w3.org/2000/svg"
     width="851.000000pt" height="851.000000pt" viewBox="0 0 851.000000 851.000000"
     preserveAspectRatio="xMidYMid meet">
    <metadata>
        Created by potrace 1.14, written by Peter Selinger 2001-2017
    </metadata>
    <g transform="translate(0.000000,851.000000) scale(0.100000,-0.100000)"
       fill="#000000" stroke="none">
        <path d="M5879 8154 c-60 -15 -134 -56 -170 -94 -17 -17 -44 -59 -60 -93 -25
-53 -29 -74 -29 -144 0 -114 21 -170 92 -241 37 -38 49 -47 99 -73 38 -20 59
-24 144 -24 87 0 107 3 150 25 65 32 141 108 168 168 31 67 31 216 0 284 -51
110 -156 185 -277 197 -45 4 -90 2 -117 -5z"/>
        <path d="M4815 8143 c-16 -8 -41 -25 -54 -37 -62 -56 -85 -200 -42 -269 82
-134 242 -156 353 -49 106 102 78 285 -54 353 -47 24 -159 25 -203 2z"/>
        <path d="M6975 7874 c-182 -38 -289 -130 -345 -297 -20 -58 -22 -81 -17 -166
3 -54 10 -107 15 -117 6 -10 19 -36 28 -58 30 -66 115 -149 196 -189 174 -88
401 -45 527 99 152 172 144 443 -17 603 -64 64 -140 106 -221 121 -53 10 -127
12 -166 4z"/>
        <path d="M4535 7183 c3 -49 10 -146 15 -218 5 -71 12 -190 16 -263 l5 -133
-39 -62 c-105 -166 -153 -313 -160 -493 -5 -126 8 -199 59 -343 10 -30 19 -70
19 -87 0 -37 -12 -44 -153 -89 -120 -39 -144 -74 -122 -174 6 -27 3 -29 -52
-47 -62 -20 -60 -17 -47 -94 5 -33 2 -39 -51 -89 -53 -50 -105 -132 -105 -165
0 -21 541 -15 780 9 212 21 525 16 632 -9 87 -21 177 -68 235 -122 25 -24 48
-44 50 -44 4 0 78 152 105 215 27 65 47 124 74 220 35 126 44 344 20 465 -40
197 -115 315 -361 564 -141 144 -191 200 -261 291 -63 84 -141 195 -160 231
-6 11 -27 50 -46 85 -45 82 -92 188 -139 314 -43 116 -32 109 -202 118 l-117
7 5 -87z"/>
        <path d="M4110 7244 c-383 -50 -608 -115 -915 -265 -139 -68 -178 -90 -292
-167 -46 -32 -92 -62 -103 -68 -10 -6 -36 -25 -57 -42 -21 -17 -81 -66 -133
-108 -155 -126 -414 -395 -538 -559 -37 -49 -78 -101 -83 -105 -3 -3 -13 -19
-23 -36 l-18 -30 65 -101 c36 -55 87 -140 113 -189 25 -49 50 -93 53 -99 12
-18 59 -137 96 -243 39 -111 75 -316 75 -423 0 -78 -26 -272 -42 -314 -37 -99
-74 -173 -114 -228 -127 -177 -159 -237 -190 -357 -33 -129 -42 -261 -28 -405
7 -67 58 -285 74 -312 5 -10 23 -52 39 -93 16 -41 65 -149 108 -240 126 -260
163 -338 163 -345 0 -3 9 -24 20 -48 24 -51 98 -259 110 -307 73 -296 97 -504
85 -730 -5 -80 -9 -170 -9 -200 l-1 -55 80 -27 c44 -15 123 -36 175 -48 52
-12 133 -32 180 -45 115 -32 570 -119 680 -131 30 -3 132 -14 225 -25 194 -24
785 -40 785 -22 0 6 -44 16 -97 23 -54 6 -123 18 -153 26 -30 8 -111 27 -180
43 -69 16 -163 41 -210 56 -47 15 -102 31 -122 36 -20 5 -52 15 -70 23 -18 8
-82 34 -143 57 -106 41 -314 134 -365 164 -14 8 -58 31 -98 52 l-73 38 48 8
c66 10 223 47 242 57 9 5 39 16 66 26 176 62 356 179 483 316 48 51 142 194
142 215 0 7 4 13 9 13 14 0 49 122 72 247 48 268 -2 494 -139 629 -131 131
-266 183 -438 171 -91 -7 -166 -33 -216 -78 -15 -13 -50 -41 -78 -62 -70 -54
-69 -88 3 -48 53 30 126 42 177 29 25 -6 47 -14 50 -17 3 -4 22 -17 42 -31 20
-13 51 -49 70 -79 29 -49 33 -63 33 -126 0 -119 -69 -239 -180 -310 -78 -50
-207 -88 -277 -81 -199 20 -434 177 -532 356 -11 19 -22 37 -26 40 -6 5 -55
135 -84 223 -25 76 -46 224 -46 328 0 128 24 258 119 639 12 47 31 123 42 170
12 47 34 132 50 190 15 58 39 151 53 207 15 56 31 114 37 130 6 15 11 74 10
131 -1 116 -34 266 -96 437 -97 267 -113 323 -125 433 -7 61 -5 106 5 170 16
97 22 82 -50 135 -18 14 -20 29 -22 162 -2 81 -7 164 -13 186 -13 46 -5 117
20 174 22 50 83 124 118 143 15 7 34 20 43 28 8 8 23 14 32 14 9 0 19 5 22 10
11 18 76 11 113 -12 23 -14 42 -38 58 -75 13 -29 29 -53 36 -53 7 0 27 9 44
19 17 10 46 22 65 26 19 4 39 11 44 16 6 4 53 13 105 19 223 25 256 32 339 68
151 65 301 189 423 352 107 142 187 307 153 315 -5 2 -57 -3 -115 -11z"/>
        <path d="M4845 7228 c80 -254 225 -528 378 -718 81 -99 118 -141 269 -295 153
-156 237 -263 283 -361 19 -41 35 -77 35 -82 0 -5 10 -38 22 -73 29 -87 31
-300 4 -444 -10 -55 -22 -104 -26 -110 -4 -5 -15 -35 -24 -65 -10 -30 -29 -80
-43 -110 -14 -30 -33 -76 -43 -101 -10 -26 -28 -62 -39 -80 -12 -19 -21 -41
-21 -50 0 -27 129 -180 320 -382 47 -50 92 -97 100 -106 8 -9 66 -77 129 -151
63 -74 135 -160 162 -190 26 -30 69 -80 95 -110 26 -30 73 -84 105 -120 31
-36 66 -76 77 -90 23 -28 43 -20 24 10 -23 37 -81 205 -100 290 -35 151 -45
248 -39 354 13 231 70 390 244 675 62 103 134 261 159 350 40 143 45 183 51
366 6 212 -8 342 -53 508 -14 51 -30 111 -36 134 -6 23 -23 54 -37 70 -42 47
-177 163 -190 163 -6 0 -11 4 -11 8 0 5 -18 21 -40 38 -23 16 -55 41 -73 56
-18 15 -47 35 -64 45 -18 10 -33 21 -33 25 0 5 -5 8 -12 8 -6 0 -19 6 -27 14
-9 8 -32 23 -51 34 -19 10 -63 36 -97 56 -34 20 -66 36 -71 36 -6 0 -12 4 -14
9 -4 11 -123 71 -142 71 -8 0 -16 4 -18 8 -1 4 -28 18 -58 31 -176 75 -250
104 -295 116 -27 8 -70 21 -94 30 -124 45 -398 109 -561 131 -131 17 -150 17
-145 2z"/>
        <path d="M7875 6853 c-11 -3 -24 -9 -30 -13 -5 -4 -22 -10 -36 -13 -64 -16
-145 -118 -168 -211 -12 -47 -6 -186 8 -186 3 0 14 -18 25 -39 42 -89 135
-150 241 -159 64 -5 165 13 165 29 0 5 7 9 16 9 19 0 80 51 111 93 77 103 66
287 -22 385 -63 70 -129 103 -218 107 -40 2 -81 1 -92 -2z"/>
        <path d="M6910 6257 c0 -8 11 -50 24 -94 13 -44 34 -145 46 -224 19 -120 21
-170 17 -299 -9 -276 -64 -465 -205 -703 -29 -48 -52 -90 -52 -93 0 -3 -9 -18
-19 -33 -11 -15 -42 -73 -70 -129 -118 -236 -141 -525 -66 -815 49 -187 141
-387 219 -476 134 -152 174 -202 279 -349 51 -72 112 -189 154 -297 35 -91 93
-314 93 -358 0 -14 6 -30 14 -36 11 -10 26 13 82 126 38 76 79 161 91 188 47
110 83 207 83 225 0 10 4 20 8 22 24 10 125 411 158 628 32 214 43 556 25 787
-16 201 -73 525 -101 583 -5 8 -13 40 -20 70 -20 85 -86 271 -136 381 -57 123
-155 312 -191 367 -20 31 -57 89 -82 127 -25 39 -48 72 -51 75 -3 3 -18 24
-34 48 -16 24 -35 46 -41 50 -6 4 -16 15 -21 24 -5 10 -43 54 -84 99 -41 45
-81 91 -88 101 -15 21 -32 24 -32 5z"/>
        <path d="M1918 5823 c-26 -31 -158 -249 -158 -261 0 -7 -4 -12 -9 -12 -14 0
-197 -380 -249 -520 -76 -202 -106 -303 -155 -515 -39 -173 -51 -293 -51 -515
1 -290 27 -416 142 -695 54 -130 121 -337 146 -452 49 -223 61 -544 27 -758
-24 -149 -78 -372 -102 -416 -10 -20 -8 -25 17 -43 74 -54 513 -272 628 -312
23 -8 55 -21 71 -28 26 -12 237 -88 287 -103 26 -8 33 63 33 337 0 261 -8 332
-62 550 -53 218 -116 379 -280 720 -174 359 -226 502 -254 689 -17 122 -7 271
30 412 33 127 62 184 173 341 133 186 176 351 165 622 -4 102 -13 170 -32 246
-25 102 -92 300 -105 310 -3 3 -12 21 -20 40 -30 76 -210 380 -225 380 -1 0
-9 -8 -17 -17z"/>
        <path d="M2767 5593 c-4 -3 -7 -48 -7 -99 0 -76 5 -106 27 -165 58 -156 250
-294 588 -422 115 -43 337 -107 373 -107 9 0 -26 15 -78 34 -340 121 -603 319
-790 596 -31 47 -67 104 -79 128 -23 45 -24 46 -34 35z"/>
        <path d="M764 5266 c-102 -45 -143 -158 -91 -253 33 -62 70 -86 138 -91 73 -5
99 1 139 34 79 67 81 204 4 276 -52 48 -126 61 -190 34z"/>
        <path d="M569 4538 c-62 -13 -137 -72 -176 -138 -29 -48 -33 -62 -33 -128 0
-120 51 -204 155 -257 49 -24 63 -27 132 -23 98 4 157 32 206 97 48 62 57 91
59 176 1 60 -3 82 -25 127 -48 98 -106 134 -247 153 -14 1 -46 -2 -71 -7z"/>
        <path d="M5296 3653 c11 -137 82 -326 164 -439 45 -61 141 -161 198 -205 l33
-25 -32 -40 c-37 -46 -144 -226 -180 -304 -15 -30 -34 -88 -44 -127 -16 -68
-16 -78 -1 -145 9 -40 25 -88 36 -106 22 -36 22 -36 -17 -21 -66 26 -329 1
-428 -41 -11 -5 -38 -14 -60 -21 -22 -6 -57 -18 -78 -26 -38 -13 -38 -13 -32
9 14 50 85 94 229 143 44 14 85 34 92 43 22 29 17 80 -11 108 -23 23 -32 25
-92 22 -54 -2 -68 0 -77 14 -13 21 3 69 50 147 27 44 34 67 34 108 0 75 -5 83
-56 83 -42 0 -45 2 -60 40 -16 39 -17 40 -66 40 -42 0 -54 -5 -79 -30 -22 -22
-31 -26 -35 -15 -3 7 -18 18 -32 23 -55 19 -98 -19 -112 -99 -13 -71 -28 -128
-29 -110 -1 8 -12 29 -27 48 -21 27 -32 33 -64 33 -22 0 -45 -7 -54 -16 -22
-21 -21 -128 0 -185 10 -26 17 -75 17 -119 1 -83 -8 -103 -104 -247 -67 -99
-80 -141 -80 -247 0 -50 5 -104 12 -121 12 -29 13 -26 25 59 21 151 71 265
137 314 28 21 65 104 77 173 10 56 9 73 -10 139 -33 118 -43 168 -37 185 11
28 36 16 58 -27 27 -55 48 -78 69 -78 21 0 40 40 40 84 0 52 19 139 33 154 8
7 21 10 31 6 13 -5 17 -17 15 -48 -4 -78 1 -156 10 -156 5 0 11 10 14 23 7 29
30 91 38 97 3 3 11 21 19 40 17 45 49 80 72 80 24 0 24 -40 -2 -115 -23 -66
-27 -149 -8 -143 7 3 25 36 42 75 29 72 59 102 90 90 24 -9 19 -42 -11 -90
-64 -100 -89 -175 -78 -227 l7 -31 89 3 c70 2 92 -1 99 -12 19 -30 10 -37 -99
-72 -128 -40 -207 -108 -246 -213 -28 -72 -22 -72 165 -21 30 8 120 27 200 42
193 35 296 31 428 -15 52 -18 96 -31 98 -29 2 3 -14 18 -35 34 -67 50 -121
159 -121 244 0 76 123 342 216 467 13 17 24 36 24 41 0 6 3 12 8 14 4 2 22 21
41 43 19 22 55 55 80 74 59 42 223 120 326 154 166 54 158 54 284 27 62 -13
154 -57 198 -94 35 -29 43 -32 43 -13 -1 14 -107 95 -159 122 -144 73 -375 80
-526 15 -84 -36 -164 -77 -202 -102 l-45 -31 -51 59 c-83 95 -182 195 -251
254 -36 30 -65 58 -65 62 -1 4 -19 31 -41 60 -22 29 -52 81 -67 116 -15 34
-31 62 -35 62 -4 0 -5 -30 -2 -67z"/>
        <path d="M564 3631 c-97 -28 -166 -85 -210 -176 -19 -41 -24 -65 -24 -135 0
-101 18 -146 81 -215 68 -73 127 -99 229 -100 51 0 99 6 120 14 66 27 128 80
162 139 29 51 33 67 36 152 3 78 0 103 -16 141 -42 96 -125 161 -235 185 -74
16 -67 16 -143 -5z"/>
        <path d="M955 2630 c-53 -26 -112 -85 -131 -128 -8 -20 -14 -67 -14 -109 0
-63 5 -84 27 -124 47 -87 128 -132 231 -130 35 1 80 8 100 17 41 17 112 81
112 101 0 7 4 13 8 13 28 0 42 141 20 212 -15 51 -77 121 -131 147 -59 28
-166 29 -222 1z"/>
        <path d="M4773 1619 c-76 -49 -166 -135 -221 -209 -80 -110 -154 -307 -151
-407 l0 -28 14 30 c34 76 55 125 55 130 0 9 111 199 126 216 8 8 14 19 14 22
0 12 103 137 173 209 37 39 67 72 67 74 0 10 -21 0 -77 -37z"/>
        <path d="M4315 670 c-117 -9 -355 -38 -425 -51 -30 -6 -86 -17 -125 -25 -100
-19 -165 -37 -165 -46 0 -5 -6 -8 -14 -8 -24 0 -100 -38 -128 -65 -44 -41 -37
-76 22 -115 12 -8 28 -20 34 -25 15 -14 168 -62 256 -81 111 -23 325 -53 466
-65 154 -14 801 -14 929 0 141 15 361 48 460 69 91 20 232 67 250 83 5 5 17 9
27 9 10 0 18 5 18 11 0 6 7 17 15 25 8 9 15 27 15 40 0 73 -156 141 -430 188
-161 27 -231 35 -480 55 -138 11 -583 12 -725 1z"/>
    </g>
</svg>
